<svg xmlns="http://www.w3.org/2000/svg" width="512" height="512" viewBox="0 0 512 512"><defs><linearGradient id="fillGrad" gradientTransform="rotate(135 0.5 0.5)"><stop offset="0%" stop-color="#FB923C"/><stop offset="100%" stop-color="#EA580C"/></linearGradient><radialGradient id="glare" cx="50%" cy="0%" r="80%"><stop offset="0%" stop-color="#ffffff" stop-opacity="0.45"/><stop offset="100%" stop-color="#ffffff" stop-opacity="0"/></radialGradient><clipPath id="clip"><path d="M512.00 256.00 L511.78 342.00 L511.12 369.38 L510.02 389.15 L508.47 405.09 L506.48 418.58 L504.02 430.33 L501.09 440.72 L497.69 450.01 L493.78 458.37 L489.36 465.90 L484.40 472.71 L478.86 478.86 L472.71 484.40 L465.90 489.36 L458.37 493.78 L450.01 497.69 L440.72 501.09 L430.33 504.02 L418.58 506.48 L405.09 508.47 L389.15 510.02 L369.38 511.12 L342.00 511.78 L256.00 512.00 L170.00 511.78 L142.62 511.12 L122.85 510.02 L106.91 508.47 L93.42 506.48 L81.67 504.02 L71.28 501.09 L61.99 497.69 L53.63 493.78 L46.10 489.36 L39.29 484.40 L33.14 478.86 L27.60 472.71 L22.64 465.90 L18.22 458.37 L14.31 450.01 L10.91 440.72 L7.98 430.33 L5.52 418.58 L3.53 405.09 L1.98 389.15 L0.88 369.38 L0.22 342.00 L0.00 256.00 L0.22 170.00 L0.88 142.62 L1.98 122.85 L3.53 106.91 L5.52 93.42 L7.98 81.67 L10.91 71.28 L14.31 61.99 L18.22 53.63 L22.64 46.10 L27.60 39.29 L33.14 33.14 L39.29 27.60 L46.10 22.64 L53.63 18.22 L61.99 14.31 L71.28 10.91 L81.67 7.98 L93.42 5.52 L106.91 3.53 L122.85 1.98 L142.62 0.88 L170.00 0.22 L256.00 0.00 L342.00 0.22 L369.38 0.88 L389.15 1.98 L405.09 3.53 L418.58 5.52 L430.33 7.98 L440.72 10.91 L450.01 14.31 L458.37 18.22 L465.90 22.64 L472.71 27.60 L478.86 33.14 L484.40 39.29 L489.36 46.10 L493.78 53.63 L497.69 61.99 L501.09 71.28 L504.02 81.67 L506.48 93.42 L508.47 106.91 L510.02 122.85 L511.12 142.62 L511.78 170.00 L512.00 256.00 Z" /></clipPath></defs><path d="M512.00 256.00 L511.78 342.00 L511.12 369.38 L510.02 389.15 L508.47 405.09 L506.48 418.58 L504.02 430.33 L501.09 440.72 L497.69 450.01 L493.78 458.37 L489.36 465.90 L484.40 472.71 L478.86 478.86 L472.71 484.40 L465.90 489.36 L458.37 493.78 L450.01 497.69 L440.72 501.09 L430.33 504.02 L418.58 506.48 L405.09 508.47 L389.15 510.02 L369.38 511.12 L342.00 511.78 L256.00 512.00 L170.00 511.78 L142.62 511.12 L122.85 510.02 L106.91 508.47 L93.42 506.48 L81.67 504.02 L71.28 501.09 L61.99 497.69 L53.63 493.78 L46.10 489.36 L39.29 484.40 L33.14 478.86 L27.60 472.71 L22.64 465.90 L18.22 458.37 L14.31 450.01 L10.91 440.72 L7.98 430.33 L5.52 418.58 L3.53 405.09 L1.98 389.15 L0.88 369.38 L0.22 342.00 L0.00 256.00 L0.22 170.00 L0.88 142.62 L1.98 122.85 L3.53 106.91 L5.52 93.42 L7.98 81.67 L10.91 71.28 L14.31 61.99 L18.22 53.63 L22.64 46.10 L27.60 39.29 L33.14 33.14 L39.29 27.60 L46.10 22.64 L53.63 18.22 L61.99 14.31 L71.28 10.91 L81.67 7.98 L93.42 5.52 L106.91 3.53 L122.85 1.98 L142.62 0.88 L170.00 0.22 L256.00 0.00 L342.00 0.22 L369.38 0.88 L389.15 1.98 L405.09 3.53 L418.58 5.52 L430.33 7.98 L440.72 10.91 L450.01 14.31 L458.37 18.22 L465.90 22.64 L472.71 27.60 L478.86 33.14 L484.40 39.29 L489.36 46.10 L493.78 53.63 L497.69 61.99 L501.09 71.28 L504.02 81.67 L506.48 93.42 L508.47 106.91 L510.02 122.85 L511.12 142.62 L511.78 170.00 L512.00 256.00 Z" fill="url(#fillGrad)"/><g clip-path="url(#clip)"><rect x="0" y="0" width="512" height="512" fill="url(#glare)"/></g><g transform="translate(96 96) scale(0.15625)" color="#FFFFFF" fill="#FFFFFF"><path fill="currentColor" d="M1600 1024q66 0 124 25t101 69t69 102t26 124t-25 124t-69 102t-102 69t-124 25q-57 0-109-19t-94-54t-71-82t-40-103q-99-6-192-36t-177-80t-153-118t-124-152v394q56 12 103 41t81 70t53 94t19 109q0 66-25 124t-69 102t-102 69t-124 25t-124-25t-102-68t-69-102t-25-125q0-57 19-109t53-93t81-71t103-41V634q-56-12-103-41t-81-70t-53-94t-19-109q0-66 25-124t68-101t102-69T576 0t124 25t101 69t69 102t26 124q0 57-19 108t-52 93t-81 71t-102 41q10 129 64 241t140 199t199 141t242 64q12-55 41-102t70-80t93-53t109-19M384 320q0 40 15 75t41 61t61 41t75 15t75-15t61-41t41-61t15-75t-15-75t-41-61t-61-41t-75-15t-75 15t-61 41t-41 61t-15 75m384 1408q0-40-15-75t-41-61t-61-41t-75-15t-75 15t-61 41t-41 61t-15 75t15 75t41 61t61 41t75 15t75-15t61-41t41-61t15-75m832-192q40 0 75-15t61-41t41-61t15-75t-15-75t-41-61t-61-41t-75-15t-75 15t-61 41t-41 61t-15 75t15 75t41 61t61 41t75 15"/></g></svg>